<svg width="78" height="115" viewBox="0 0 78 115" fill="none" xmlns="http://www.w3.org/2000/svg">
<path fill-rule="evenodd" clip-rule="evenodd" d="M74.529 42.5065C68.719 45.4825 67.752 49.9775 67.752 53.7275V62.5505C67.752 64.3505 66.373 65.9005 64.581 65.9845C62.667 66.0755 61.088 64.5455 61.088 62.6445V12.3735C61.088 9.48049 58.751 7.13449 55.867 7.13449C52.984 7.13449 50.647 9.48049 50.647 12.3735V55.1935C50.647 56.9945 49.268 58.5435 47.476 58.6285C45.563 58.7185 43.983 57.1885 43.983 55.2875V5.12849C43.983 2.29649 41.696 0.000488281 38.874 0.000488281C36.052 0.000488281 33.765 2.29649 33.765 5.12849V55.1935C33.765 56.9945 32.386 58.5435 30.594 58.6285C28.68 58.7185 27.101 57.1885 27.101 55.2875V12.3735C27.101 9.48049 24.764 7.13449 21.88 7.13449C18.997 7.13449 16.66 9.48049 16.66 12.3735V62.5505C16.66 64.3505 15.281 65.9005 13.489 65.9845C11.576 66.0755 9.996 64.5455 9.996 62.6445V53.7275C9.996 49.9775 9.029 45.4825 3.218 42.5065C1.746 41.7525 0 42.8405 0 44.4995V74.9055C0 96.5405 17.439 114.141 38.874 114.141C60.309 114.141 77.748 96.5405 77.748 74.9055V44.4995C77.748 42.8405 76.002 41.7525 74.529 42.5065ZM41.486 66.6805C41.996 66.8955 42.302 67.4225 42.236 67.9725L40.687 80.8095H51.855C52.279 80.8095 52.68 80.8095 53.002 80.8395C53.313 80.8685 53.816 80.9425 54.239 81.2965C54.738 81.7135 55.011 82.3335 55.002 82.9705C54.995 83.5045 54.742 83.9305 54.566 84.1945C54.384 84.4675 54.129 84.7835 53.857 85.1225L38.538 104.166C38.191 104.598 37.6 104.747 37.089 104.532C36.579 104.317 36.273 103.79 36.339 103.24L37.888 90.4035H26.719C26.296 90.4035 25.895 90.4035 25.573 90.3735C25.261 90.3445 24.758 90.2705 24.335 89.9165C23.837 89.4995 23.563 88.8795 23.573 88.2425C23.58 87.7085 23.833 87.2825 24.009 87.0185C24.191 86.7455 24.446 86.4295 24.718 86.0905L40.037 67.0465C40.384 66.6145 40.975 66.4655 41.486 66.6805Z" fill="#BB00FF"/>
</svg>
