<?xml version="1.0" encoding="UTF-8" standalone="no"?>
<!DOCTYPE svg PUBLIC "-//W3C//DTD SVG 1.1//EN" "http://www.w3.org/Graphics/SVG/1.1/DTD/svg11.dtd">
<svg width="100%" height="100%" viewBox="0 0 410 139" version="1.1" xmlns="http://www.w3.org/2000/svg" xmlns:xlink="http://www.w3.org/1999/xlink" xml:space="preserve" xmlns:serif="http://www.serif.com/" style="fill-rule:evenodd;clip-rule:evenodd;stroke-linejoin:round;stroke-miterlimit:2;">
    <g transform="matrix(1,0,0,1,-671.477,-500.383)">
        <g transform="matrix(1,0,0,1,394.814,-242.717)">
            <g id="background" transform="matrix(1,0,0,1,276.663,743.1)">
                <rect x="0" y="0" width="409.318" height="138.141" style="fill:rgb(187,0,255);"/>
            </g>
        </g>
        <g transform="matrix(1,0,0,1,394.814,-242.717)">
            <g id="logo" transform="matrix(1,0,0,1,276.321,742.813)">
                <path d="M86.871,54.792C81.061,57.768 80.094,62.263 80.094,66.013L80.094,74.836C80.094,76.636 78.715,78.186 76.923,78.27C75.009,78.361 73.43,76.831 73.43,74.93L73.43,24.659C73.43,21.766 71.093,19.42 68.209,19.42C65.326,19.42 62.989,21.766 62.989,24.659L62.989,67.479C62.989,69.28 61.61,70.829 59.818,70.914C57.905,71.004 56.325,69.474 56.325,67.573L56.325,17.414C56.325,14.582 54.038,12.286 51.216,12.286C48.394,12.286 46.107,14.582 46.107,17.414L46.107,67.479C46.107,69.28 44.728,70.829 42.936,70.914C41.022,71.004 39.443,69.474 39.443,67.573L39.443,24.659C39.443,21.766 37.106,19.42 34.222,19.42C31.339,19.42 29.002,21.766 29.002,24.659L29.002,74.836C29.002,76.636 27.623,78.186 25.831,78.27C23.918,78.361 22.338,76.831 22.338,74.93L22.338,66.013C22.338,62.263 21.371,57.768 15.56,54.792C14.088,54.038 12.342,55.126 12.342,56.785L12.342,87.191C12.342,108.826 29.781,126.427 51.216,126.427C72.651,126.427 90.09,108.826 90.09,87.191L90.09,56.785C90.09,55.126 88.344,54.038 86.871,54.792ZM53.828,78.966C54.338,79.181 54.644,79.708 54.578,80.258L53.029,93.095L64.197,93.095C64.621,93.095 65.022,93.095 65.344,93.125C65.655,93.154 66.159,93.228 66.581,93.582C67.08,93.999 67.354,94.619 67.344,95.256C67.337,95.79 67.084,96.216 66.908,96.48C66.726,96.753 66.471,97.069 66.199,97.408L50.88,116.452C50.533,116.884 49.942,117.033 49.431,116.818C48.921,116.603 48.615,116.076 48.681,115.526L50.23,102.689L39.061,102.689C38.638,102.689 38.237,102.689 37.915,102.659C37.603,102.63 37.1,102.556 36.677,102.202C36.179,101.785 35.905,101.166 35.915,100.528C35.922,99.994 36.175,99.568 36.351,99.304C36.533,99.031 36.788,98.715 37.06,98.376L52.379,79.332C52.726,78.9 53.317,78.751 53.828,78.966Z" style="fill:white;"/>
            </g>
        </g>
        <g transform="matrix(1,0,0,1,394.814,-242.717)">
            <g id="word">
                <g transform="matrix(1,0,0,1,276.321,742.813)">
                    <path d="M397.66,97.612L383.903,97.612C377.231,97.612 373.441,93.246 373.441,86.82L373.441,43.491L385.139,43.491L385.139,56.424L395.848,56.424L395.848,65.32L385.139,65.32L385.139,84.679C385.139,87.15 386.21,88.303 388.763,88.303L397.66,88.303L397.66,97.612Z" style="fill:white;fill-rule:nonzero;"/>
                </g>
                <g transform="matrix(1,0,0,1,276.321,742.813)">
                    <path d="M364.646,50.823L352.207,50.823L352.207,39.784L364.646,39.784L364.646,50.823ZM364.646,97.612L352.948,97.612L352.948,56.424L364.646,56.424L364.646,97.612Z" style="fill:white;fill-rule:nonzero;"/>
                </g>
                <g transform="matrix(1,0,0,1,276.321,742.813)">
                    <path d="M320.013,98.93C312.187,98.93 307.162,93.163 307.162,84.184L307.162,56.424L318.859,56.424L318.859,81.466C318.859,86.985 321.248,89.209 325.038,89.209C331.051,89.209 333.275,83.608 333.275,76.771L333.275,56.424L344.973,56.424L344.973,97.612L334.099,97.612C334.181,94.811 335.829,91.351 338.053,88.138L333.028,88.138C331.051,93.987 326.85,98.93 320.013,98.93Z" style="fill:white;fill-rule:nonzero;"/>
                </g>
                <g transform="matrix(1,0,0,1,276.321,742.813)">
                    <path d="M273.639,98.93C263.589,98.93 256.67,90.033 256.67,77.018C256.67,64.002 263.589,55.188 273.639,55.188C282.124,55.188 285.501,60.707 287.314,64.909L292.256,64.909C290.197,61.696 287.89,57.824 287.89,48.022L287.89,39.949L299.588,39.949L299.588,97.612L288.961,97.612C288.961,94.729 290.856,91.598 292.503,89.209L287.561,89.209C285.501,93.328 282.371,98.93 273.639,98.93ZM278.582,90.033C284.348,90.033 288.385,85.75 288.385,77.018C288.385,68.286 284.431,64.002 278.582,64.002C273.145,64.002 268.944,67.38 268.944,77.018C268.944,86.656 273.145,90.033 278.582,90.033Z" style="fill:white;fill-rule:nonzero;"/>
                </g>
                <g transform="matrix(1,0,0,1,276.321,742.813)">
                    <path d="M225.147,97.611L213.449,97.611L213.449,56.424L223.993,56.424C223.911,59.142 222.181,62.684 219.957,65.897L225.064,65.897C226.959,60.048 231.078,55.188 237.668,55.188C246.729,55.188 251.672,61.201 251.672,70.345L251.672,97.611L239.974,97.611L239.974,72.569C239.974,67.132 237.421,64.826 233.384,64.826C225.229,64.826 225.147,73.723 225.147,78.088L225.147,97.611Z" style="fill:white;fill-rule:nonzero;"/>
                </g>
                <g transform="matrix(1,0,0,1,276.321,742.813)">
                    <path d="M186.538,98.929C173.934,98.929 164.873,89.703 164.873,77.018C164.873,63.837 173.934,55.188 186.538,55.188C199.141,55.188 208.203,63.837 208.203,77.018C208.203,90.445 199.141,98.929 186.538,98.929ZM186.538,89.621C192.139,89.621 196.011,85.667 196.011,77.182C196.011,68.698 192.139,64.414 186.538,64.414C180.936,64.414 177.065,68.698 177.065,77.182C177.065,85.667 180.936,89.621 186.538,89.621Z" style="fill:white;fill-rule:nonzero;"/>
                </g>
                <g transform="matrix(1,0,0,1,276.321,742.813)">
                    <path d="M143.264,98.929C130.578,98.929 121.188,90.198 121.188,76.935C121.188,63.673 130.908,55.188 143.347,55.188C153.232,55.188 160.234,60.542 162.952,67.544L152.161,71.581C150.513,66.885 147.218,64.414 142.935,64.414C137.415,64.414 132.967,68.451 132.967,76.935C132.967,85.42 137.58,89.621 143.017,89.621C147.795,89.621 150.76,87.067 152.573,81.795L163.611,85.749C160.481,93.657 152.984,98.929 143.264,98.929Z" style="fill:white;fill-rule:nonzero;"/>
                </g>
            </g>
        </g>
    </g>
</svg>
