<?xml version="1.0" encoding="UTF-8" standalone="no"?>
<!DOCTYPE svg PUBLIC "-//W3C//DTD SVG 1.1//EN" "http://www.w3.org/Graphics/SVG/1.1/DTD/svg11.dtd">
<svg width="100%" height="100%" viewBox="0 0 78 115" version="1.1" xmlns="http://www.w3.org/2000/svg" xmlns:xlink="http://www.w3.org/1999/xlink" xml:space="preserve" xmlns:serif="http://www.serif.com/" style="fill-rule:evenodd;clip-rule:evenodd;stroke-linejoin:round;stroke-miterlimit:2;">
    <g transform="matrix(1,0,0,1,-1377.51,-4586.12)">
        <g transform="matrix(1,0,0,1,1840.04,-0.245396)">
            <g transform="matrix(1,0,0,1,-462.871,4586.08)">
                <path d="M74.871,42.792C69.061,45.768 68.094,50.263 68.094,54.013L68.094,62.836C68.094,64.636 66.715,66.186 64.923,66.27C63.009,66.361 61.43,64.831 61.43,62.93L61.43,12.659C61.43,9.766 59.093,7.42 56.209,7.42C53.326,7.42 50.989,9.766 50.989,12.659L50.989,55.479C50.989,57.28 49.61,58.829 47.818,58.914C45.905,59.004 44.325,57.474 44.325,55.573L44.325,5.414C44.325,2.582 42.038,0.286 39.216,0.286C36.394,0.286 34.107,2.582 34.107,5.414L34.107,55.479C34.107,57.28 32.728,58.829 30.936,58.914C29.022,59.004 27.443,57.474 27.443,55.573L27.443,12.659C27.443,9.766 25.106,7.42 22.222,7.42C19.339,7.42 17.002,9.766 17.002,12.659L17.002,62.836C17.002,64.636 15.623,66.186 13.831,66.27C11.918,66.361 10.338,64.831 10.338,62.93L10.338,54.013C10.338,50.263 9.371,45.768 3.56,42.792C2.088,42.038 0.342,43.126 0.342,44.785L0.342,75.191C0.342,96.826 17.781,114.427 39.216,114.427C60.651,114.427 78.09,96.826 78.09,75.191L78.09,44.785C78.09,43.126 76.344,42.038 74.871,42.792ZM41.828,66.966C42.338,67.181 42.644,67.708 42.578,68.258L41.029,81.095L52.197,81.095C52.621,81.095 53.022,81.095 53.344,81.125C53.655,81.154 54.158,81.228 54.581,81.582C55.08,81.999 55.353,82.619 55.344,83.256C55.337,83.79 55.084,84.216 54.908,84.48C54.726,84.753 54.471,85.069 54.199,85.408L38.88,104.452C38.533,104.884 37.942,105.033 37.431,104.818C36.921,104.603 36.615,104.076 36.681,103.526L38.23,90.689L27.061,90.689C26.638,90.689 26.237,90.689 25.915,90.659C25.603,90.63 25.1,90.556 24.677,90.202C24.179,89.785 23.905,89.165 23.915,88.528C23.922,87.994 24.175,87.568 24.351,87.304C24.533,87.031 24.788,86.715 25.06,86.376L40.379,67.332C40.726,66.9 41.317,66.751 41.828,66.966Z" style="fill:white;"/>
            </g>
        </g>
    </g>
</svg>
