
<svg width="100%" height="100%" viewBox="0 0 79 79" version="1.1" xmlns="http://www.w3.org/2000/svg" xmlns:xlink="http://www.w3.org/1999/xlink" xml:space="preserve" xmlns:serif="http://www.serif.com/" style="fill-rule:evenodd;clip-rule:evenodd;">
    <g transform="matrix(1,0,0,1,-1692.42,-4488.14)">
        <g transform="matrix(1,0,0,1,1840.04,-0.245396)">
            <g transform="matrix(1,0,0,1,-146.055,4489.94)">
                <path d="M74.5,8L74.5,67C74.5,71.139 71.139,74.5 67,74.5L8,74.5C3.861,74.5 0.5,71.139 0.5,67L0.5,8C0.5,3.861 3.861,0.5 8,0.5L67,0.5C71.139,0.5 74.5,3.861 74.5,8Z" style="fill-opacity:0.4;stroke:rgb(204,204,204);stroke-opacity:0.6;stroke-width:1px;stroke-dasharray:10,10;stroke-dashoffset:-6;"/>
            </g>
            <g transform="matrix(1,0,0,1,-146.055,4489.94)">
                <path d="M38,30L38,44M31,37L45,37" style="fill:none;fill-rule:nonzero;stroke:rgb(216,216,216);stroke-opacity:0.6;stroke-width:2px;stroke-linecap:round;stroke-linejoin:round;"/>
            </g>
        </g>
    </g>
</svg>
